#!OML:ASF F:\VICON\USERDATA\INSTALL\rory3\rory3.ASF
:FULLY-SPECIFIED
:DEGREES
340
root 0.306543 18.1447 28.0319 -5.03886 0.628098 -1.65397
lowerback 16.0556 -1.08446 -0.728016
upperback -0.256962 -1.30384 2.89752
thorax -9.22974 -0.513951 3.86072
lowerneck -10.9042 0.531447 -1.13185
upperneck 29.0928 1.78716 -2.64296
head 11.2341 0.363066 -0.544253
rclavicle 1.1691e-014 -2.3059e-014
rhumerus -37.4476 -11.8458 -76.3211
rradius 26.4889
rwrist 3.71127
rhand -13.0118 9.57581
rfingers 7.12502
rthumb 13.0818 -19.9939
lclavicle 1.1691e-014 -2.3059e-014
lhumerus -40.8603 0.0122175 87.4523
lradius 41.334
lwrist 6.3125
lhand -11.4644 51.2284
lfingers 7.12502
lthumb 14.5731 80.6964
rfemur -16.7108 2.17477 26.4891
rtibia 27.977
rfoot -4.91556 -8.29084
rtoes 18.2575
lfemur 2.91907 -5.45184 -21.106
ltibia 51.7676
lfoot 17.6273 -9.32847
ltoes -13.497
341
root 0.279735 18.1454 28.1799 -5.32605 0.198808 -2.46503
lowerback 16.4348 -1.01539 -0.0892574
upperback -0.147055 -1.06636 3.11985
thorax -9.34869 -0.42274 3.69255
lowerneck -10.8744 0.532979 -0.976992
upperneck 29.0324 1.78757 -2.76876
head 11.2072 0.365977 -0.616669
rclavicle 1.16786e-015 3.97569e-015
rhumerus -37.1722 -10.7854 -76.8425
rradius 27.1735
rwrist 2.99238
rhand -13.095 9.4338
rfingers 7.12502
rthumb 13.0017 -20.141
lclavicle 1.16786e-015 3.97569e-015
lhumerus -41.0486 -0.314236 87.7147
lradius 41.3827
lwrist 5.87173
lhand -11.3256 51.4028
lfingers 7.12502
lthumb 14.7068 80.8612
rfemur -15.9702 2.65646 27.5842
rtibia 28.1076
rfoot -5.42899 -8.45532
rtoes 18.5292
lfemur 1.72866 -4.7695 -19.7645
ltibia 53.8589
lfoot 16.1088 -10.5717
ltoes -14.877
342
root 0.263651 18.1525 28.3105 -5.36326 -0.0784282 -3.25979
lowerback 16.8112 -0.987843 0.736032
upperback -0.209881 -0.840307 3.30355
thorax -9.6557 -0.3441 3.38247
lowerneck -10.8547 0.469211 -1.08716
upperneck 29.1912 1.6836 -2.62384
head 11.2608 0.322278 -0.558915
rclavicle -2.2649e-014 1.51076e-014
rhumerus -36.9411 -10.2097 -77.0593
rradius 27.6772
rwrist 2.61966
rhand -12.9905 9.52645
rfingers 7.12502
rthumb 13.1023 -20.042
lclavicle -2.2649e-014 1.51076e-014
lhumerus -41.2507 -0.764063 88.0401
lradius 41.3023
lwrist 5.47975
lhand -11.461 50.9177
lfingers 7.12502
lthumb 14.5763 80.3855
rfemur -15.5167 2.79765 28.5971
rtibia 28.1353
rfoot -5.69259 -8.4191
rtoes 18.5866
lfemur 0.112278 -4.33251 -18.5063
ltibia 55.875
lfoot 14.7259 -10.9697
ltoes -15.1063
343
root 0.273645 18.1644 28.4744 -5.39319 0.253377 -2.74474
lowerback 16.6377 -1.08099 0.604791
upperback -0.200896 -1.01853 3.05827
thorax -9.53935 -0.43133 3.22665
lowerneck -10.8733 0.431478 -1.35788
upperneck 29.5119 1.61398 -2.32461
head 11.3831 0.292476 -0.4131
rclavicle -2.89977e-014 1.90833e-014
rhumerus -36.6775 -9.83608 -77.1961
rradius 28.0962
rwrist 2.52663
rhand -13.0184 9.82323
rfingers 7.12502
rthumb 13.0754 -19.7469
lclavicle -2.89977e-014 1.90833e-014
lhumerus -41.3229 -1.04748 88.2953
lradius 41.0607
lwrist 5.19789
lhand -11.9639 50.0511
lfingers 7.12502
lthumb 14.0918 79.5533
rfemur -14.8747 1.70948 27.9648
rtibia 28.1352
rfoot -6.1312 -7.58391
rtoes 18.5555
lfemur -1.15204 -4.48373 -19.1339
ltibia 57.595
lfoot 12.8838 -10.6573
ltoes -16.1696
344
root 0.253513 18.1551 28.6082 -5.65827 0.0382674 -3.39473
lowerback 16.6858 -1.06989 1.15051
upperback 0.160632 -0.889608 3.24311
thorax -9.18162 -0.395641 3.07544
lowerneck -10.9727 0.408542 -1.43998
upperneck 29.2584 1.58298 -2.2818
head 11.304 0.277693 -0.385496
rclavicle 7.05686e-015 2.38542e-014
rhumerus -35.7508 -9.60979 -77.3959
rradius 28.372
rwrist 2.55966
rhand -13.0585 10.1121
rfingers 7.12502
rthumb 13.0368 -19.4605
lclavicle 7.05686e-015 2.38542e-014
lhumerus -40.8549 -1.03001 88.3998
lradius 40.9243
lwrist 4.74185
lhand -12.1589 49.559
lfingers 7.12502
lthumb 13.9039 79.0742
rfemur -14.0835 2.10864 28.8464
rtibia 28.2048
rfoot -6.65665 -7.82729
rtoes 19.0128
lfemur -2.45389 -3.96997 -18.0301
ltibia 59.3908
lfoot 10.9994 -10.7674
ltoes -17.488
345
root 0.241436 18.144 28.7456 -5.81189 0.0512783 -3.51086
lowerback 17.5359 -1.07531 1.32809
upperback -0.20033 -0.821011 3.23142
thorax -10.0671 -0.361646 2.98497
lowerneck -10.4166 0.367788 -1.51038
upperneck 29.2562 1.51868 -2.26122
head 11.1896 0.247687 -0.374984
rclavicle 9.96408e-015 -2.06736e-014
rhumerus -36.0433 -9.02429 -77.4323
rradius 28.8746
rwrist 2.28602
rhand -13.0609 10.1524
rfingers 7.12502
rthumb 13.0345 -19.4203
lclavicle 9.96408e-015 -2.06736e-014
lhumerus -41.5645 -1.01896 88.4999
lradius 40.9809
lwrist 4.19905
lhand -11.9155 49.5294
lfingers 7.12502
lthumb 14.1384 79.0284
rfemur -13.4108 2.26064 29.0502
rtibia 28.4349
rfoot -7.47285 -7.84017
rtoes 20.4536
lfemur -3.78262 -3.66763 -17.6536
ltibia 60.9202
lfoot 9.30602 -10.4278
ltoes -18.8035
346
root 0.226865 18.1373 28.8813 -5.81938 0.0490996 -3.34577
lowerback 17.2007 -1.00749 1.13634
upperback 0.159449 -0.797579 3.18981
thorax -9.47781 -0.349204 3.01966
lowerneck -10.675 0.302102 -1.84929
upperneck 29.071 1.43075 -2.00766
head 11.1662 0.202564 -0.233361
rclavicle -4.27387e-015 2.38542e-015
rhumerus -35.1095 -8.73726 -77.607
rradius 29.3787
rwrist 2.27626
rhand -13.0618 10.0912
rfingers 7.12502
rthumb 13.0336 -19.4816
lclavicle -4.27387e-015 2.38542e-015
lhumerus -40.922 -1.01871 88.6074
lradius 40.7972
lwrist 3.8496
lhand -11.8344 49.3182
lfingers 7.12502
lthumb 14.2166 78.8117
rfemur -12.934 2.46303 28.9735
rtibia 28.5993
rfoot -7.9926 -7.92089
rtoes 20.9576
lfemur -5.29015 -3.3555 -17.6163
ltibia 62.2787
lfoot 7.72399 -9.96652
ltoes -21.1357
347
root 0.210989 18.1415 29.0152 -5.91429 -0.128329 -3.49955
lowerback 17.3953 -0.934032 1.22709
upperback 0.206884 -0.673242 3.22972
thorax -9.5413 -0.292499 2.98493
lowerneck -10.2502 0.327956 -1.53383
upperneck 28.8166 1.4699 -2.32785
head 10.9882 0.223518 -0.398999
rclavicle -1.62755e-014 3.57812e-014
rhumerus -34.7306 -8.53318 -77.6208
rradius 29.9298
rwrist 2.93
rhand -12.998 9.66945
rfingers 7.12502
rthumb 13.0951 -19.8994
lclavicle -1.62755e-014 3.57812e-014
lhumerus -40.8328 -0.956279 88.6712
lradius 40.6728
lwrist 3.79077
lhand -12.113 49.0566
lfingers 7.12502
lthumb 13.9481 78.5688
rfemur -12.5611 2.73346 29.3071
rtibia 28.866
rfoot -8.18894 -8.14627
rtoes 19.4676
lfemur -6.62646 -2.84262 -17.1481
ltibia 63.3607
lfoot 6.34752 -9.46097
ltoes -22.4783
348
root 0.198839 18.1522 29.1657 -6.1787 -0.292547 -3.53745
lowerback 17.5801 -0.898833 1.22424
upperback 0.349009 -0.62493 3.2398
thorax -9.49042 -0.269946 2.98652
lowerneck -10.0943 0.37711 -1.14023
upperneck 28.7594 1.55165 -2.69093
head 10.9413 0.26205 -0.588591
rclavicle 8.84592e-015 -3.10104e-014
rhumerus -34.2615 -8.41128 -77.6616
rradius 30.3742
rwrist 3.13161
rhand -13.0553 9.3386
rfingers 7.12502
rthumb 13.0399 -20.2338
lclavicle 8.84592e-015 -3.10104e-014
lhumerus -40.7437 -0.737001 88.6639
lradius 40.6204
lwrist 3.8856
lhand -12.3212 48.9383
lfingers 7.12502
lthumb 13.7475 78.4642
rfemur -11.9869 2.85277 29.5027
rtibia 29.1067
rfoot -8.34698 -8.35637
rtoes 17.7863
lfemur -7.50835 -2.30543 -16.8852
ltibia 64.1541
lfoot 5.12381 -8.60239
ltoes -23.1961
349
root 0.185914 18.1561 29.3205 -6.36228 -0.394682 -3.52708
lowerback 17.5582 -0.835538 1.18481
upperback 0.497947 -0.552789 3.26262
thorax -9.31638 -0.235149 3.01052
lowerneck -10.1981 0.282638 -1.48631
upperneck 28.8802 1.46079 -2.55563
head 11.0049 0.196885 -0.491496
rclavicle 2.11954e-014 -2.46493e-014
rhumerus -33.8337 -8.36403 -77.5802
rradius 30.7033
rwrist 2.68134
rhand -13.4218 10.1341
rfingers 7.12502
rthumb 12.6866 -19.4605
lclavicle 2.11954e-014 -2.46493e-014
lhumerus -40.6573 -0.332931 88.6441
lradius 40.5096
lwrist 3.69046
lhand -12.2539 48.9651
lfingers 7.12502
lthumb 13.8123 78.4865
rfemur -11.3392 2.92381 29.635
rtibia 29.2589
rfoot -8.73728 -8.4873
rtoes 17.2591
lfemur -8.4665 -1.8298 -16.71
ltibia 64.8178
lfoot 3.95284 -7.52507
ltoes -22.0148
350
root 0.174627 18.1526 29.4576 -6.37665 -0.494693 -3.83328
lowerback 17.6122 -0.813028 1.46844
upperback 0.51792 -0.455214 3.35886
thorax -9.33088 -0.198641 2.93018
lowerneck -10.7367 0.124031 -2.38161
upperneck 29.6406 1.25768 -1.80976
head 11.396 0.0802967 -0.092791
rclavicle 1.07841e-014 9.54166e-015
rhumerus -33.5808 -8.30722 -77.4607
rradius 31.1839
rwrist 2.3122
rhand -13.6679 11.1055
rfingers 7.12502
rthumb 12.4493 -18.5037
lclavicle 1.07841e-014 9.54166e-015
lhumerus -40.8086 0.0195524 88.6137
lradius 40.6662
lwrist 3.73604
lhand -12.2828 49.0002
lfingers 7.12502
lthumb 13.7845 78.5235
rfemur -10.8138 3.08317 30.1056
rtibia 29.3236
rfoot -9.23829 -8.64426
rtoes 17.5897
lfemur -9.78775 -1.38681 -16.1487
ltibia 65.4833
lfoot 2.8795 -6.70118
ltoes -20.2661
351
root 0.16759 18.1489 29.5914 -6.42254 -0.524399 -4.09379
lowerback 17.5388 -0.824114 1.7901
upperback 0.660075 -0.409605 3.39926
thorax -9.13753 -0.19145 2.77318
lowerneck -10.6587 0.118511 -2.1899
upperneck 29.5969 1.2709 -2.04139
head 11.3662 0.0808545 -0.209308
rclavicle 1.39895e-014 -2.3059e-014
rhumerus -33.0837 -8.45569 -77.3338
rradius 31.6047
rwrist 1.88852
rhand -13.5836 11.4722
rfingers 7.12502
rthumb 12.5306 -18.1321
lclavicle 1.39895e-014 -2.3059e-014
lhumerus -40.6742 0.334666 88.5414
lradius 40.8686
lwrist 4.06688
lhand -12.2249 49.7397
lfingers 7.12502
lthumb 13.8403 79.2593
rfemur -10.2382 3.11131 30.5022
rtibia 29.3048
rfoot -9.63297 -8.76989
rtoes 17.1368
lfemur -11.0663 -1.08643 -15.7051
ltibia 66.0632
lfoot 1.8311 -5.90869
ltoes -19.5594
352
root 0.161278 18.1435 29.7267 -6.52571 -0.627788 -4.53135
lowerback 17.8565 -0.850426 2.26579
upperback 0.549126 -0.318055 3.51553
thorax -9.44401 -0.164245 2.61782
lowerneck -10.4884 0.105359 -2.3052
upperneck 29.9281 1.27638 -2.0228
head 11.4604 0.0685451 -0.18356
rclavicle 1.09829e-014 -4.45278e-014
rhumerus -32.9495 -8.61919 -76.9663
rradius 31.8087
rwrist 1.33745
rhand -12.9854 12.4995
rfingers 7.12502
rthumb 13.1073 -17.0686
lclavicle 1.09829e-014 -4.45278e-014
lhumerus -40.8642 1.03223 88.4033
lradius 40.8074
lwrist 4.02553
lhand -11.6399 50.6385
lfingers 7.12502
lthumb 14.404 80.1186
rfemur -9.63154 3.20473 31.1033
rtibia 29.2839
rfoot -10.0162 -8.91984
rtoes 16.7718
lfemur -12.2806 -0.696119 -15.0624
ltibia 66.5321
lfoot 0.686501 -5.14863
ltoes -20.308
